<?xml version="1.0" standalone="no"?>
<!DOCTYPE svg PUBLIC "-//W3C//DTD SVG 20010904//EN"
 "http://www.w3.org/TR/2001/REC-SVG-20010904/DTD/svg10.dtd">
<svg version="1.0" xmlns="http://www.w3.org/2000/svg"
 width="500.000000pt" height="500.000000pt" viewBox="0 0 500.000000 500.000000"
 preserveAspectRatio="xMidYMid meet">
<metadata>
Created by potrace 1.16, written by Peter Selinger 2001-2019
</metadata>
<g transform="translate(0.000000,500.000000) scale(0.100000,-0.100000)"
fill="#ffffff" stroke="none">
<path d="M985 4860 c-9 -30 -53 -79 -86 -96 -20 -10 -29 -22 -29 -40 0 -32 31
-93 63 -123 24 -21 26 -31 25 -101 0 -88 10 -113 82 -205 31 -39 53 -81 65
-120 31 -110 77 -170 159 -212 l51 -26 -34 -9 -34 -9 35 -22 c40 -24 65 -54
125 -142 54 -80 97 -119 160 -147 34 -15 71 -45 112 -90 l61 -66 0 -104 0
-104 40 -54 c51 -68 58 -90 34 -107 -29 -21 -43 -14 -65 31 -8 16 -18 31 -24
33 -5 1 -27 -29 -48 -67 -43 -80 -77 -105 -131 -94 -26 4 -36 2 -44 -12 -16
-28 -42 -10 -42 29 0 28 -9 42 -45 76 -24 22 -54 41 -66 41 -21 0 -21 -1 -6
-18 13 -14 17 -38 17 -98 0 -176 62 -307 276 -583 36 -46 41 -57 31 -73 -14
-23 -128 -99 -177 -118 -19 -8 -50 -23 -67 -35 -34 -23 -37 -23 -158 2 -16 3
-43 21 -60 39 -25 26 -42 34 -83 40 -36 4 -56 13 -62 25 -16 29 -12 57 9 64
11 3 34 22 50 41 35 39 40 86 17 139 l-14 30 -10 -25 -9 -25 -16 35 c-21 50
-57 86 -68 68 -5 -7 -9 -23 -9 -35 0 -12 -16 -58 -35 -102 -19 -43 -35 -88
-35 -99 0 -11 16 -41 35 -66 22 -29 30 -48 23 -52 -6 -4 11 -14 38 -23 83 -28
115 -112 84 -220 -23 -80 -31 -235 -19 -371 10 -123 9 -148 -11 -285 -33 -220
-35 -273 -15 -341 l17 -59 19 24 c15 18 34 25 96 33 93 11 142 0 173 -40 19
-23 23 -25 31 -10 27 48 102 129 116 124 8 -3 25 -6 38 -6 30 0 70 -64 80
-128 l7 -44 18 30 c10 17 29 33 42 37 13 4 37 19 53 34 48 44 82 61 120 61 69
0 135 -55 135 -114 l1 -31 16 30 c47 91 124 131 233 122 66 -6 70 -5 74 16 3
12 9 323 15 691 6 391 14 673 20 679 5 5 19 6 32 2 l22 -7 -6 -412 c-4 -226
-10 -544 -14 -706 l-6 -295 63 -30 c34 -16 73 -43 86 -58 l24 -29 26 31 c36
44 87 43 146 -2 54 -40 81 -94 86 -172 l5 -60 29 109 c15 61 35 120 43 132 13
21 13 23 -5 29 -38 12 -22 53 54 134 45 48 183 144 196 136 5 -3 11 -18 15
-34 3 -16 28 -68 56 -115 27 -47 49 -88 49 -90 0 -3 -36 -8 -80 -12 -44 -3
-80 -10 -80 -14 0 -4 8 -14 18 -23 15 -14 23 -14 69 -2 144 38 267 27 329 -27
l34 -30 30 22 c25 17 39 21 68 15 20 -3 71 -6 113 -5 60 1 89 -4 129 -21 51
-22 53 -22 66 -4 20 27 54 121 54 148 0 12 -5 29 -10 37 -6 10 -4 20 7 32 12
14 15 39 14 114 -1 86 3 109 39 224 49 154 59 220 37 239 -13 11 -19 6 -36
-31 l-21 -43 5 75 c2 41 7 107 11 145 6 62 3 79 -20 135 -23 58 -25 74 -20
150 7 98 -2 142 -48 220 l-32 55 -9 -65 c-4 -36 -22 -95 -39 -132 -30 -66 -31
-70 -24 -169 l7 -102 -88 82 c-128 121 -249 202 -476 321 l-107 56 112 104
c204 186 274 282 284 391 6 55 -26 272 -45 306 -11 19 -60 257 -71 338 -7 56
-13 48 -30 -42 -19 -93 -9 -162 33 -242 35 -67 35 -72 32 -163 -3 -88 -5 -95
-35 -129 l-32 -35 -74 11 c-42 7 -83 20 -93 30 -11 9 -28 42 -37 73 -27 87
-46 104 -65 55 -21 -57 -69 -58 -148 -3 -31 22 -67 40 -78 40 -33 0 -36 15
-13 60 21 41 49 218 46 295 l-1 40 79 31 c97 38 139 71 170 133 39 77 104 136
168 155 31 9 58 22 61 29 2 6 29 21 58 31 131 45 178 95 204 214 22 105 30
125 68 178 19 27 50 78 68 114 22 41 64 95 115 148 l81 82 -33 0 c-18 0 -35 4
-38 9 -3 4 -2 39 3 77 4 38 5 78 1 88 -6 19 -8 18 -24 -6 -10 -15 -57 -54
-105 -87 l-88 -60 -26 27 -27 27 0 -31 c0 -60 -31 -121 -119 -231 -91 -116
-151 -218 -171 -291 -6 -23 -15 -40 -20 -37 -13 8 -13 65 1 104 6 18 9 34 6
37 -10 10 -68 -80 -63 -96 20 -63 20 -66 2 -51 -16 13 -24 8 -86 -60 -71 -76
-120 -156 -120 -195 0 -34 -38 -91 -64 -98 -13 -3 -47 -22 -76 -41 -29 -19
-56 -35 -61 -35 -21 0 -6 20 36 47 40 25 59 53 38 53 -5 0 -14 4 -22 9 -11 7
-7 18 21 53 20 23 66 88 102 142 76 113 76 135 1 98 -25 -12 -48 -22 -50 -22
-14 0 1 52 54 191 78 203 77 199 53 199 -10 0 -29 -12 -43 -26 -13 -14 -42
-40 -63 -57 l-39 -31 6 57 c3 35 2 57 -4 55 -5 -2 -26 -32 -46 -67 -48 -82
-63 -88 -63 -26 0 43 -1 46 -22 40 -13 -4 -60 -27 -105 -51 -44 -24 -85 -44
-91 -44 -5 0 -12 47 -15 105 -7 101 -26 175 -45 175 -5 0 -57 -49 -116 -110
-58 -61 -110 -110 -115 -110 -6 0 -31 39 -57 88 -77 142 -122 189 -138 145 -3
-10 -21 -63 -40 -118 -19 -55 -38 -99 -42 -99 -5 1 -16 19 -24 41 -8 21 -26
57 -39 78 l-24 40 -28 -108 c-33 -127 -65 -205 -79 -191 -5 5 -41 88 -80 184
-40 96 -79 190 -88 209 -15 34 -16 34 -25 10 -5 -13 -11 -100 -14 -194 -5
-162 5 -258 32 -327 10 -26 -12 -23 -88 12 -37 17 -78 30 -93 30 -25 0 -26 -3
-21 -34 3 -18 30 -84 61 -146 31 -62 56 -115 56 -117 0 -1 -15 -3 -32 -3 -28
0 -37 6 -55 38 -11 20 -45 64 -75 97 -46 51 -57 71 -71 130 -18 74 -60 149
-80 142 -13 -4 -13 -13 -2 -64 6 -25 4 -33 -7 -33 -22 0 -38 21 -38 51 0 40
-13 69 -54 118 -30 36 -36 51 -36 89 0 76 -18 161 -41 199 -21 33 -23 34 -33
15 -10 -18 -14 -15 -45 39 -39 67 -113 149 -135 149 -8 0 -18 -9 -21 -20z
m104 -111 c28 -33 51 -65 51 -71 0 -6 13 -37 30 -69 16 -32 37 -84 46 -115 9
-32 31 -85 50 -119 18 -33 36 -77 39 -98 5 -23 19 -48 37 -65 16 -15 72 -75
124 -134 95 -108 154 -200 154 -244 0 -15 13 -35 32 -51 18 -16 52 -47 75 -69
l43 -41 0 -93 0 -92 -50 44 c-28 23 -72 57 -98 75 -133 89 -142 97 -177 167
-19 38 -35 78 -35 90 0 44 -36 82 -119 125 l-81 42 -44 92 c-24 51 -51 113
-61 139 -10 26 -32 64 -50 85 -33 39 -65 94 -65 112 0 6 16 13 35 17 19 3 35
8 35 11 0 11 -47 71 -102 132 -32 35 -58 69 -58 76 0 22 95 115 117 115 14 0
39 -22 72 -61z m2873 -34 c5 -16 14 -40 21 -53 9 -20 6 -27 -29 -61 -22 -21
-69 -87 -104 -146 -35 -59 -83 -132 -107 -161 -41 -50 -56 -94 -32 -94 13 0 9
-21 -17 -93 -24 -68 -75 -107 -197 -152 -56 -21 -119 -47 -139 -58 -38 -21
-83 -76 -112 -138 -23 -50 -52 -74 -107 -88 -26 -7 -75 -35 -115 -66 -38 -30
-72 -51 -76 -47 -13 15 11 116 34 138 31 31 138 94 159 94 11 0 24 22 43 73
35 96 93 190 136 222 32 23 35 24 38 8 8 -46 12 -47 48 -12 22 21 60 85 100
166 47 96 82 154 132 211 57 68 153 185 172 210 3 4 24 24 48 45 54 47 91 48
104 2z m-1668 -133 c18 -35 66 -203 66 -232 0 -29 24 -35 57 -14 15 9 75 68
133 129 126 135 130 133 105 -52 -9 -67 -14 -127 -10 -133 9 -15 21 -13 88 19
90 43 164 71 171 64 15 -15 3 -63 -25 -107 -31 -46 -166 -173 -208 -196 -12
-6 -21 -17 -21 -26 0 -40 145 83 267 228 36 43 69 78 73 78 15 0 -11 -85 -42
-140 -44 -78 -112 -180 -120 -180 -5 0 -8 7 -8 16 0 10 -25 -7 -67 -45 -110
-99 -132 -104 -298 -67 -119 27 -174 22 -352 -33 -88 -28 -173 -51 -189 -53
-26 -3 -34 6 -90 87 -62 89 -101 161 -93 169 2 3 30 -3 62 -11 l57 -16 20 -69
c12 -37 24 -68 27 -68 3 0 3 37 0 83 -5 79 -5 81 9 43 15 -43 31 -66 45 -66 5
0 0 19 -12 43 -35 67 -49 135 -49 237 l0 95 40 -81 c40 -80 123 -194 148 -202
9 -3 12 41 12 199 0 119 4 199 9 194 5 -6 19 -38 31 -73 13 -34 28 -61 34 -59
9 3 82 186 99 250 7 24 14 21 31 -11z m852 -208 c-22 -63 -70 -153 -128 -239
-30 -44 -57 -85 -61 -92 -5 -8 16 -5 60 7 37 11 69 17 72 14 7 -7 -216 -224
-229 -224 -6 0 0 24 11 53 47 117 127 345 140 394 8 32 19 55 29 58 10 3 39
21 66 40 26 19 49 33 51 31 2 -1 -3 -21 -11 -42z m-642 -524 c155 -13 292 -45
323 -76 30 -30 29 -65 -3 -98 -27 -26 -26 -28 21 -30 17 -1 20 -9 23 -55 4
-72 -3 -98 -30 -107 -21 -6 -21 -7 -3 -20 17 -12 14 -15 -29 -34 -164 -70
-342 -110 -487 -110 -144 0 -302 37 -451 103 -52 24 -57 29 -63 68 -4 23 -7
74 -7 114 0 88 21 133 67 142 l29 6 -34 12 c-19 6 -30 14 -24 17 20 13 266 58
359 66 141 13 174 13 309 2z m-516 -533 c-51 -20 -55 -26 -36 -57 11 -18 14
-18 30 -3 17 15 20 15 46 -10 28 -27 75 -36 87 -17 10 15 46 12 67 -7 17 -15
18 -15 18 8 0 14 -6 34 -14 45 -15 20 -14 21 107 20 67 -1 148 3 181 7 l58 9
-16 -23 c-17 -24 -22 -59 -8 -59 4 0 15 7 26 15 16 12 23 12 54 0 46 -20 46
-20 85 15 31 27 36 28 48 14 11 -14 15 -13 30 8 17 22 17 23 -9 40 -15 10 -38
18 -51 18 -36 0 -13 19 31 27 47 7 64 -17 79 -117 15 -103 4 -130 -50 -130
-67 0 -63 -36 7 -65 58 -25 28 -50 -35 -30 -35 11 -43 -23 -12 -47 46 -35 51
-40 42 -49 -6 -6 -22 -5 -41 2 -59 20 -90 -37 -33 -61 16 -6 32 -18 34 -25 14
-34 -107 -190 -190 -244 -45 -30 -51 -31 -153 -31 -101 0 -109 2 -153 30 -88
56 -210 197 -178 208 30 10 74 59 68 75 -9 23 -39 21 -81 -4 -34 -20 -36 -20
-43 -3 -4 10 -2 19 3 21 33 11 74 46 74 62 0 29 -15 34 -49 16 -41 -21 -61
-19 -61 5 0 14 14 27 45 42 34 17 45 28 45 45 0 27 -18 29 -62 7 -20 -10 -34
-12 -40 -6 -17 17 -27 91 -28 203 l0 107 63 -22 63 -21 -48 -18z m1597 -317
c0 -78 -3 -92 -33 -151 -59 -117 -161 -220 -445 -451 -148 -120 -198 -153
-166 -110 19 26 56 58 142 123 62 46 75 60 61 66 -19 7 -93 -10 -138 -33 -16
-8 -31 -12 -33 -10 -3 2 7 28 21 58 16 34 23 63 19 80 -9 46 6 95 42 143 42
55 44 67 8 63 -24 -3 -28 1 -33 27 -10 51 0 74 51 116 27 22 64 66 84 98 44
73 61 89 69 64 25 -88 34 -250 16 -312 -5 -19 -8 -36 -6 -39 10 -9 53 25 151
118 57 55 116 107 130 116 18 12 25 25 25 48 0 17 3 48 7 70 10 64 27 14 28
-84z m-2155 2 c0 -32 6 -43 44 -74 l43 -37 10 32 c13 47 53 48 122 3 30 -20
58 -33 62 -30 4 2 -3 21 -16 41 -27 39 -31 53 -15 53 15 0 150 -209 150 -232
0 -22 -12 -20 -90 14 -25 10 -65 22 -90 25 l-44 6 54 -48 c30 -27 77 -76 104
-109 48 -60 129 -213 142 -269 l6 -28 -63 41 c-59 38 -105 58 -114 49 -2 -3
36 -50 84 -105 93 -107 191 -246 191 -270 0 -23 -12 -12 -151 144 -320 358
-459 589 -459 762 0 37 3 70 6 73 13 13 24 -5 24 -41z m-360 -452 c6 -11 8
-36 4 -55 -7 -40 -3 -42 31 -19 23 15 25 15 25 0 0 -23 -42 -64 -74 -72 -22
-5 -26 -12 -26 -45 0 -46 -10 -49 -33 -10 -23 39 -21 66 8 126 14 28 25 57 25
66 0 33 24 39 40 9z m2927 -367 c2 -134 3 -145 28 -188 29 -49 29 -33 9 -260
-3 -33 -1 -73 6 -89 10 -28 11 -28 30 -11 29 26 26 5 -11 -90 -48 -122 -59
-172 -59 -268 0 -101 9 -91 -129 -127 -72 -19 -374 -70 -412 -70 -22 0 -28 17
-40 109 -11 91 -17 113 -30 106 -14 -9 -11 -93 5 -155 8 -30 13 -56 11 -58 -9
-10 -51 71 -80 156 -57 168 -61 149 47 234 114 90 248 176 286 184 24 5 32 1
54 -33 14 -21 51 -58 82 -82 45 -35 67 -45 106 -49 37 -3 51 -1 55 10 9 24
-23 87 -54 102 -42 22 -79 71 -122 161 -47 97 -69 180 -69 257 0 82 16 80 30
-4 17 -107 56 -243 83 -285 36 -56 89 -105 101 -93 7 7 1 51 -17 132 -33 147
-33 154 -6 169 20 10 21 16 14 73 -14 106 -10 158 13 211 12 28 27 70 33 95
19 78 34 23 36 -137z m-658 103 c109 -54 192 -114 219 -158 13 -22 25 -66 32
-123 6 -50 17 -115 24 -145 8 -30 16 -61 18 -68 2 -9 -69 -63 -177 -136 -180
-122 -315 -222 -498 -368 -53 -43 -102 -78 -107 -78 -21 0 -25 72 -24 480 l1
425 69 63 c96 87 226 148 326 151 16 1 68 -19 117 -43z m-2128 -118 c33 -65
58 -84 89 -68 30 16 43 -27 37 -125 -11 -156 -71 -302 -147 -353 -31 -21 -36
-22 -46 -7 -19 26 -27 126 -15 191 25 139 41 289 35 323 -3 20 -17 55 -30 78
-13 23 -24 44 -24 47 0 3 16 -2 36 -12 27 -12 44 -32 65 -74z m580 43 c35 -26
94 -80 132 -120 l67 -71 0 -98 c0 -185 -28 -629 -46 -730 l-6 -33 -39 67 c-60
101 -138 201 -383 491 l-87 102 12 79 c15 96 6 183 -22 208 -20 18 -26 44 -9
44 5 0 17 -11 26 -25 l16 -25 43 30 c69 48 209 130 221 130 6 0 40 -22 75 -49z
m-320 -629 c83 -91 96 -182 48 -339 -26 -84 -39 -88 -39 -14 0 85 -16 84 -24
-2 -4 -39 -10 -74 -14 -78 -11 -10 -291 85 -311 107 -18 18 -18 24 -6 99 8 44
14 85 14 91 1 7 23 26 50 43 50 32 123 105 155 154 18 27 18 27 48 9 17 -9 52
-41 79 -70z m227 -279 c36 -57 102 -199 102 -220 0 -12 -7 -14 -27 -9 -16 4
-46 9 -68 12 -22 3 -53 10 -68 16 -31 12 -31 9 -3 113 9 32 16 76 16 97 0 21
4 38 9 38 5 0 23 -21 39 -47z"/>
<path d="M2291 3749 c-188 -4 -323 -12 -335 -18 -12 -6 -39 -17 -61 -25 l-40
-14 41 -7 41 -7 7 -110 c3 -60 4 -113 1 -118 -3 -5 -13 -6 -23 -3 -42 15 8
-16 58 -35 116 -46 206 -62 344 -62 138 0 201 11 339 56 l77 26 0 58 c0 32 5
62 11 65 6 5 5 11 -5 18 -11 9 -16 35 -18 97 l-3 85 -60 1 c-33 1 -201 -2
-374 -7z m413 -101 c9 -98 8 -190 -2 -199 -15 -14 -191 -59 -272 -70 -49 -6
-119 -8 -165 -4 -77 7 -263 49 -277 63 -11 11 -26 256 -17 266 7 8 252 18 630
24 l96 2 7 -82z"/>
<path d="M2419 3665 c-9 -9 -42 -20 -73 -24 -42 -6 -64 -15 -86 -36 -28 -27
-61 -93 -74 -147 l-6 -28 78 0 c103 0 140 13 158 56 23 54 -8 104 -65 104 -37
0 -53 -56 -25 -84 22 -23 39 -9 18 15 -29 32 3 68 34 37 17 -17 15 -73 -2 -87
-8 -7 -30 -11 -48 -9 -41 4 -63 43 -53 94 7 41 34 61 99 73 50 9 71 22 65 40
-3 8 -10 6 -20 -4z"/>
<path d="M1249 2018 c-16 -18 -36 -55 -44 -82 -24 -80 -46 -213 -43 -253 l3
-38 42 52 c57 73 84 148 90 261 7 104 0 112 -48 60z"/>
<path d="M1503 972 c-18 -26 -37 -59 -43 -74 -5 -16 -15 -40 -20 -54 -6 -15
-11 -77 -13 -140 -2 -92 -5 -117 -19 -131 -10 -9 -20 -14 -23 -11 -3 3 -23 54
-45 114 l-39 109 14 68 c8 37 12 74 8 82 -7 21 -47 29 -82 17 -16 -6 -39 -8
-50 -5 -31 8 -69 -58 -76 -132 -10 -106 -36 -278 -52 -338 -36 -142 -33 -217
7 -217 29 0 80 49 80 75 0 13 4 26 9 30 5 3 15 31 21 63 15 72 30 112 41 112
5 0 25 -33 44 -74 20 -40 49 -92 65 -115 27 -37 34 -41 73 -41 23 0 48 4 55 9
17 11 69 167 82 246 20 124 32 371 20 414 -6 23 -14 41 -18 41 -4 0 -21 -21
-39 -48z"/>
<path d="M2163 1001 c-55 -35 -63 -62 -63 -230 0 -150 0 -151 -25 -167 -29
-19 -33 -59 -10 -90 11 -15 13 -39 9 -109 -5 -98 2 -119 47 -130 19 -5 27 0
42 24 9 16 17 40 17 54 0 13 7 30 16 38 13 11 22 10 57 -9 23 -12 65 -39 92
-60 70 -53 147 -95 238 -131 43 -17 101 -43 129 -57 45 -23 52 -24 66 -11 8 9
12 22 9 31 -6 15 -91 82 -236 185 -114 82 -245 190 -258 214 -10 21 -5 25 84
72 53 28 111 64 130 81 30 28 33 37 33 86 0 78 -15 114 -64 146 -109 74 -251
102 -313 63z"/>
<path d="M1827 978 c-18 -18 -45 -39 -61 -48 -25 -12 -32 -25 -41 -70 -19 -95
-79 -231 -126 -290 -31 -36 -35 -64 -20 -118 8 -26 5 -42 -16 -88 -21 -46 -23
-60 -14 -80 9 -20 18 -24 51 -24 48 0 58 14 89 115 12 39 27 78 35 88 15 19
113 50 128 41 4 -3 8 -43 8 -90 0 -53 6 -98 15 -121 l16 -37 39 39 c38 39 39
43 56 160 9 66 20 124 25 129 4 5 4 17 -2 27 -5 10 -11 66 -14 124 -5 104 -24
175 -47 175 -6 0 -8 14 -5 34 11 69 -61 90 -116 34z"/>
<path d="M2996 948 c-21 -19 -34 -55 -71 -196 -45 -174 -94 -298 -122 -309 -8
-3 -23 3 -33 13 -16 16 -19 35 -20 119 0 55 2 136 6 180 5 68 2 85 -14 115
-10 19 -31 42 -46 50 -25 14 -28 14 -46 -10 -33 -43 -43 -122 -37 -305 6 -199
21 -267 66 -307 36 -32 76 -36 124 -12 l31 17 31 -38 c31 -36 32 -37 61 -22
58 30 78 62 75 119 -1 30 16 142 39 258 56 283 58 302 31 329 -27 27 -44 27
-75 -1z"/>
<path d="M3315 934 c-135 -16 -185 -50 -185 -126 l0 -40 60 4 c43 2 61 -1 65
-10 8 -22 6 -138 -6 -283 -13 -159 -6 -234 22 -249 23 -13 53 0 64 27 10 26
43 218 61 358 19 145 28 167 73 176 40 8 52 25 44 59 -17 75 -71 98 -198 84z"/>
<path d="M3612 860 c-17 -23 -40 -74 -52 -114 -12 -39 -39 -101 -61 -137 -21
-36 -39 -70 -39 -76 0 -6 8 -21 19 -34 11 -15 23 -55 30 -108 7 -52 19 -97 33
-118 l21 -35 71 4 c91 6 141 32 222 113 128 129 163 271 103 430 -16 42 -30
62 -59 81 -35 23 -47 25 -127 23 -48 -1 -97 1 -109 5 -17 6 -27 0 -52 -34z
m210 -150 c29 -29 30 -34 26 -99 -3 -58 -9 -78 -40 -127 -20 -33 -53 -72 -73
-89 -34 -28 -38 -29 -63 -14 l-27 15 0 121 c0 135 8 155 75 201 44 30 66 28
102 -8z"/>
</g>
</svg>
